<svg data-name="Слой 1" xmlns="http://www.w3.org/2000/svg" viewBox="0 0 14.42 14.5"><path d="M9.83.25H4.58A4.38 4.38 0 0 0 .21 4.63v5.25a4.38 4.38 0 0 0 4.37 4.38h5.25a4.38 4.38 0 0 0 4.37-4.37V4.63A4.38 4.38 0 0 0 9.83.25zm3.07 9.63a3.07 3.07 0 0 1-3.06 3.06H4.58a3.07 3.07 0 0 1-3.06-3.06V4.63a3.07 3.07 0 0 1 3.06-3.07h5.25a3.07 3.07 0 0 1 3.07 3.07z" fill="#2d2a26"/><path d="M7.21 3.75a3.5 3.5 0 1 0 3.5 3.5 3.5 3.5 0 0 0-3.5-3.5zm0 5.69A2.19 2.19 0 1 1 9.4 7.25a2.19 2.19 0 0 1-2.19 2.19zM11 4a.47.47 0 1 0-.47-.47A.47.47 0 0 0 11 4z" fill="#2d2a26"/></svg>