<svg data-name="Слой 1" xmlns="http://www.w3.org/2000/svg" viewBox="0 0 46 57"><path d="M19.27 8.4h5.46V0H2.4l28.07 47.36h11.89z" fill="#ffed00"/><path d="M24.73 8.4V0z" fill="#fae920"/><path d="M38.42 22.9A13.21 13.21 0 0 0 46 11.18C46 4.13 41.13 0 33.41 0h-8.68v8.4h6c3.62 0 5.63 2.3 4.8 5.76a7.26 7.26 0 0 1-6.3 5.51H8.67L2.39 47.36H25a24.11 24.11 0 0 0 5.16-.54l-4.9-8.27H14.7l2.39-11h13.52a4 4 0 0 1 1.55.73 4.76 4.76 0 0 1 1.23 4l5.84 9.85a15.31 15.31 0 0 0 4.62-11c-.01-3.82-1.61-6.81-5.43-8.23zM5.78 52.18a1.5 1.5 0 0 1-.07.45 1.8 1.8 0 0 1-.18.4 1.93 1.93 0 0 1-.26.33 1.75 1.75 0 0 1-.31.26 1 1 0 0 1 .41.43 1.38 1.38 0 0 1 .14.61 2 2 0 0 1-.66 1.5 2.44 2.44 0 0 1-.78.48 2.77 2.77 0 0 1-1 .18H0l1.35-6.16h2.79a1.67 1.67 0 0 1 1.2.41 1.45 1.45 0 0 1 .44 1.11zm-3.59 2.13L2 55.42h1.24a.53.53 0 0 0 .21 0 .52.52 0 0 0 .18-.11.75.75 0 0 0 .2-.33.68.68 0 0 0 0-.21.51.51 0 0 0 0-.21.43.43 0 0 0-.13-.15.34.34 0 0 0-.21-.06zm.5-2.25l-.24 1.1h1a.53.53 0 0 0 .22 0 .52.52 0 0 0 .2-.16.87.87 0 0 0 .21-.37.56.56 0 0 0 0-.37.33.33 0 0 0-.33-.17zm4.46 4l-.54.84H4.87v-.22l4.14-6h.83l1.56 6v.22H9.7l-.23-.9zM8 54.71h1.27l-.33-1.45zm6-1.13l-.71 3.28H11.6l1.35-6.19h.52l2.62 3.1.68-3.07h1.65l-1.35 6.18h-.42zM19.58 56l-.54.84h-1.73v-.22l4.14-6h.83l1.56 6v.22h-1.7l-.23-.84zm.81-1.31h1.31l-.33-1.45zm6-1.13l-.71 3.28H24l1.35-6.19h.52l2.62 3.1.68-3.07h1.65l-1.35 6.18h-.42zM32 56l-.54.84h-1.71v-.22l4.14-6h.83l1.56 6v.22h-1.7l-.23-.84zm.81-1.31h1.31l-.33-1.45zM38 55a.41.41 0 0 0 0 .28.49.49 0 0 0 .19.2 1 1 0 0 0 .3.12 1.6 1.6 0 0 0 .36 0 1.8 1.8 0 0 0 .39 0 1.38 1.38 0 0 0 .36-.13.87.87 0 0 0 .27-.22.45.45 0 0 0 .1-.29.38.38 0 0 0 0-.15.39.39 0 0 0-.08-.13.68.68 0 0 0-.26-.15 1.54 1.54 0 0 0-.34-.07h-.33a4.21 4.21 0 0 1-.73-.11 2.1 2.1 0 0 1-.63-.35 1.4 1.4 0 0 1-.44-.44 1.22 1.22 0 0 1-.16-.66 2 2 0 0 1 .25-1 2.24 2.24 0 0 1 .67-.73 3 3 0 0 1 .94-.43 4.19 4.19 0 0 1 1.08-.14 2.93 2.93 0 0 1 .87.13 1.93 1.93 0 0 1 .7.38 1.37 1.37 0 0 1 .41.63 1.64 1.64 0 0 1 0 .88h-1.54a.47.47 0 0 0-.21-.47.81.81 0 0 0-.26-.11 1.37 1.37 0 0 0-.31 0 1.24 1.24 0 0 0-.35 0 1.21 1.21 0 0 0-.3.13.67.67 0 0 0-.22.21.52.52 0 0 0-.08.29.33.33 0 0 0 .06.21.35.35 0 0 0 .17.13 2.42 2.42 0 0 0 .63.14q.42 0 .84.12a2.36 2.36 0 0 1 .69.25 1.29 1.29 0 0 1 .47.44 1.31 1.31 0 0 1 .17.7 2.23 2.23 0 0 1-.24 1.07 2.09 2.09 0 0 1-.66.74 2.93 2.93 0 0 1-1 .43 5 5 0 0 1-1.21.14 3.52 3.52 0 0 1-.95-.12 2 2 0 0 1-.75-.37 1.38 1.38 0 0 1-.44-.63 1.65 1.65 0 0 1 0-.9z" fill="#fff"/></svg>