<svg data-name="Слой 1" xmlns="http://www.w3.org/2000/svg" viewBox="0 0 56 56"><path d="M4 19l-.73-.17V19zm48 0h.75v-.16zm-36 0h.75a.75.75 0 0 0-.75-.75zm12 0h.75a.75.75 0 0 0-.75-.75zm12 0h.75a.75.75 0 0 0-.75-.75zm-31-.75a.75.75 0 0 0 0 1.5zm12 0a.75.75 0 0 0 0 1.5zm24 0a.75.75 0 0 0 0 1.5zm-11.5 0a.75.75 0 0 0 0 1.5zM15.25 14a.75.75 0 0 0 1.5 0zm12 0a.75.75 0 0 0 1.5 0zm12 0a.75.75 0 0 0 1.5 0zM2 54.5h-.75a.75.75 0 0 0 .75.75zm52.5 0v.75a.75.75 0 0 0 .75-.75zm0-4h.75a.75.75 0 0 0-.75-.75zM2 50.5v-.75a.75.75 0 0 0-.75.75zm3.75-25a.75.75 0 0 0-1.5 0zm47 0a.75.75 0 0 0-1.5 0zm-38.5 22a.75.75 0 0 0 1.5 0zm10.5-5.5a.75.75 0 0 0-1.5 0zm7.5 5.5a.75.75 0 0 0 1.5 0zm10.5-5.5a.75.75 0 0 0-1.5 0zM8.5 2.25h39V.75h-39zM48.75 3.5V8h1.5V3.5zM7.25 8V3.5h-1.5V8zm-1.48-.17l-2.5 11 1.46.33 2.5-11zm43 .33l2.5 11 1.46-.33-2.5-11zM15.25 19A5.25 5.25 0 0 1 10 24.25v1.5A6.75 6.75 0 0 0 16.75 19zM10 24.25A5.25 5.25 0 0 1 4.75 19h-1.5A6.75 6.75 0 0 0 10 25.75zM27.25 19A5.25 5.25 0 0 1 22 24.25v1.5A6.75 6.75 0 0 0 28.75 19zM22 24.25A5.25 5.25 0 0 1 16.75 19h-1.5A6.75 6.75 0 0 0 22 25.75zm12 0A5.25 5.25 0 0 1 28.75 19h-1.5A6.75 6.75 0 0 0 34 25.75zM51.25 19A5.25 5.25 0 0 1 46 24.25v1.5A6.75 6.75 0 0 0 52.75 19zM16 18.25H9v1.5h7zm12 0h-7v1.5h7zm18 6A5.25 5.25 0 0 1 40.75 19h-1.5A6.75 6.75 0 0 0 46 25.75zM40.75 19h-1.5zm-1.5 0A5.25 5.25 0 0 1 34 24.25v1.5A6.75 6.75 0 0 0 40.75 19zM52 18.25h-7v1.5h7zm-12 0h-6.5v1.5H40zm-24-11H6.5v1.5H16zm.75 6.75V8h-1.5v6zM28 7.25H16v1.5h12zm.75 6.75V8h-1.5v6zM49.5 7.25H40v1.5h9.5zm-9.5 0H28v1.5h12zm.75 6.75V8h-1.5v6zM2 55.25h52.5v-1.5H2zm53.25-.75v-4h-1.5v4zm-54-4v4h1.5v-4zM5 49.75H2v1.5h3zm.75.75v-25h-1.5v25zm1.75-.75H5v1.5h2.5zm47 0H52v1.5h2.5zm-1.75.75v-25h-1.5v25zm-.75-.75h-2.5v1.5H52zm-43.75.75V39h-1.5v11.5zm0-11.5V24.46h-1.5V39zm42 11.5V39h-1.5v11.5zm0-11.5V24h-1.5v15zm-42.75.75H15v-1.5H7.5zm6.75-.75v6.87h1.5v-6.06h-1.5zM24 49.75H7.5v1.5H24zm.75.75V42h-1.5v8.5zM15 39.75h18v-1.5H15zm18 0h16.5v-1.5H33zm-.75-.75v8.5h1.5V39zM49.5 49.75H42v1.5h7.5zm-7.5 0H24v1.5h18zm.75.75V42h-1.5v8.5zm4.76-48.25a1.24 1.24 0 0 1 1.24 1.25h1.5A2.74 2.74 0 0 0 47.51.75zM8.5.75A2.75 2.75 0 0 0 5.75 3.5h1.5A1.25 1.25 0 0 1 8.5 2.25z" fill="#ffed00"/></svg>