<svg data-name="Слой 1" xmlns="http://www.w3.org/2000/svg" viewBox="0 0 49.67 56"><defs/><path d="M1.5 54.25a.75.75 0 0 0 0 1.5zm46 1.5a.75.75 0 0 0 0-1.5zM41 41.5l-.73.19zm2.3 6.5l.69-.29zM5.77 48l-.69-.29zM2.5 27.25a.75.75 0 0 0 0 1.5zm44 1.5a.75.75 0 0 0 0-1.5zM4 24.5v-.75a.75.75 0 0 0-.75.75zm41 0h.75a.75.75 0 0 0-.46-.69zm-29-7l-.47-.59zm5.5 0l.64.4zm10.69-.41l.48-.58zM24.5 1V.25h-.75V1zm8 0l.59.47A.75.75 0 0 0 32.5.25zm-2 2.5l-.59-.5a.75.75 0 0 0 0 .94zm2 2.5v.75a.75.75 0 0 0 .59-1.22zm7.12 25h.75zM1.5 55.75h1v-1.5h-1zm8-27h30v-1.5h-30zm37 27h1v-1.5h-1zm-44 0h14v-1.5h-14zm14 0h16v-1.5h-16zm16 0h14v-1.5h-14zM31.75 45v3h1.5v-3zm0 3v7h1.5v-7zm8.52-6.31a52.62 52.62 0 0 0 2.33 6.6l1.4-.58a51.2 51.2 0 0 1-2.27-6.4zm2.33 6.6c.78 1.89 1.59 3.65 2.2 4.94.3.64.56 1.17.74 1.54l.21.42.06.11.69-.3.67-.34-.05-.11-.21-.42c-.18-.36-.43-.88-.73-1.52-.6-1.28-1.4-3-2.17-4.87zm-10.11.46H43.3v-1.5H32.5zM17.25 55v-7h-1.5v7zm0-7v-3h-1.5v3zM2.5 55l.66.35.06-.11.21-.42c.18-.36.45-.88.76-1.52.62-1.28 1.45-3 2.25-5l-1.39-.57c-.79 1.91-1.6 3.64-2.21 4.9-.31.63-.56 1.14-.74 1.49l-.21.4-.05.1zm4-6.71a49.3 49.3 0 0 0 2.26-6.6l-1.46-.36a47.82 47.82 0 0 1-2.19 6.4zm10-1H5.77v1.5H16.5zm-7-20H4v1.5h5.5zm-5.5 0H2.5v1.5H4zm.75.75V24.5h-1.5V28zm34.75.75H45v-1.5h-5.5zm5.5 0h1.5v-1.5H45zm-.75-4.25V28h1.5v-3.5zM4 25.25h11.5v-1.5H4zm11.5 0h18v-1.5h-18zm18 0H45v-1.5H33.5zm-29.5 0a.9.9 0 0 0 .25 0h.12l.29-.11.92-.41c.76-.35 1.8-.86 3-1.49a52.86 52.86 0 0 0 7.9-5.08l-.94-1.17a51.37 51.37 0 0 1-7.67 4.92c-1.16.62-2.17 1.11-2.9 1.45l-.87.38-.23.09H4zm12.47-7.16a62.82 62.82 0 0 0 5.67-5.39c.84-.89 1.58-1.69 2.1-2.27l.61-.68.15-.19-.5-.56-.57-.49-.16.18-.6.67c-.51.57-1.24 1.36-2.07 2.24a61.43 61.43 0 0 1-5.52 5.25zM24.5 9l-.75-.08V9.14c0 .12 0 .31-.09.54-.08.47-.22 1.13-.43 1.92a20.84 20.84 0 0 1-2.35 5.55l1.27.79a22.33 22.33 0 0 0 2.53-6c.23-.84.37-1.55.46-2 0-.25.08-.45.09-.59v-.16zm-3.64 8.1a35.22 35.22 0 0 1-3.57 4.44c-.63.69-1.21 1.3-1.64 1.73l-.5.51-.14.14.53.53.46.55.14-.14.51-.52c.43-.44 1-1.06 1.67-1.77a36.56 36.56 0 0 0 3.74-4.66zM24.5 9l-.75.07v.18c0 .15 0 .37.09.64.09.54.23 1.3.46 2.17a17.93 17.93 0 0 0 2.55 5.81l1.22-.87a16.46 16.46 0 0 1-2.32-5.31c-.21-.82-.35-1.53-.43-2 0-.25-.07-.45-.09-.59v-.15zm2.39 8.94a59.89 59.89 0 0 0 3.84 4.66c.62.7 1.18 1.3 1.58 1.73l.48.51.13.14.54-.52L34 24l-.13-.13-.47-.5c-.4-.42-.95-1-1.56-1.71a58.51 58.51 0 0 1-3.73-4.53zM24.5 9l-.58.47.15.18.54.65c.46.55 1.11 1.3 1.87 2.15a52.37 52.37 0 0 0 5.19 5.16l1-1.16a51 51 0 0 1-5-5c-.75-.83-1.39-1.58-1.84-2.11l-.53-.63-.14-.17zm7.22 8.66A50.25 50.25 0 0 0 40.18 23c1.29.67 2.42 1.21 3.23 1.58l1 .43.26.11h.07l.26-.62.29-.69h-.06l-.23-.14-1-.42c-.79-.36-1.9-.89-3.17-1.55a48.78 48.78 0 0 1-8.2-5.2zM24.5 1.75h8V.25h-8zM31.91.53l-2 2.5 1.18.97 2-2.5zm-2 3.47l2 2.5 1.17-.94-2-2.5zm-4.66 5zm0-3zm7.25-.75h-8v1.5h8zM8.73 41.68A59.32 59.32 0 0 0 10.15 31H8.66a57.87 57.87 0 0 1-1.39 10.32zM10.15 31c0-.91.07-1.67.08-2.2v-.62-.16H8.75v.76c0 .52 0 1.26-.08 2.16zm29.35-3h-.75v.83c0 .53 0 1.29.1 2.19l1.5-.09c-.05-.89-.08-1.63-.1-2.15V28h-.75zm-.62 3a61.13 61.13 0 0 0 1.4 10.64l1.45-.38A59.74 59.74 0 0 1 40.37 31zm-29.47.71h30.21v-1.5H9.41zm15.09 6A7.25 7.25 0 0 1 31.75 45h1.5a8.75 8.75 0 0 0-8.75-8.75zm0-1.5A8.75 8.75 0 0 0 15.75 45h1.5a7.25 7.25 0 0 1 7.25-7.25z"/></svg>