<svg data-name="Слой 1" xmlns="http://www.w3.org/2000/svg" viewBox="0 0 56 56"><defs/><path d="M38.19 35.12a.93.93 0 0 0-1.76.63c.85 2.22.91 3.92.17 4.66-.9.9-3.15.62-6-.75A39.92 39.92 0 0 1 20.26 32C13 24.68 9.93 17.51 11.8 15.65a2.55 2.55 0 0 1 2.11-.49.93.93 0 0 0 .18-1.86 4.3 4.3 0 0 0-3.61 1c-3.42 3.42 1.81 12.33 8.46 19a41.74 41.74 0 0 0 10.84 8.07 18.41 18.41 0 0 0 2.25.9l-6.63 2.51A26.41 26.41 0 0 1 8.7 24.23a.93.93 0 0 0-1.84.29 28.24 28.24 0 0 0 16 21.23L12 49.87a.92.92 0 0 0-.19-.22 13 13 0 0 1-4.82-9l-.43-5.24a.92.92 0 0 0-1-.86.93.93 0 0 0-.86 1l.44 5.24A14.86 14.86 0 0 0 10 50.6l-7.74 2.95 1.4-5.74a.93.93 0 0 0-1.81-.44L0 54.82a.93.93 0 0 0 1.24 1.09L35.8 42.86l.15-.1a3.63 3.63 0 0 0 2-1c.91-.91 1.7-2.82.24-6.64z"/><path d="M47 32.71a30.74 30.74 0 0 0-15.81-1.53l-3.33.56a.93.93 0 0 0 .31 1.84l3.32-.58a28.85 28.85 0 0 1 14.85 1.44 1 1 0 0 0 .33.05.93.93 0 0 0 .33-1.78zM50.31 18.26a.93.93 0 0 0-1.24-.44l-19.6 9.33a.93.93 0 0 0-.47 1.24.93.93 0 0 0 1.24.44l19.6-9.33a.93.93 0 0 0 .47-1.24zM22.67 6.33a.93.93 0 0 0-1.83.37 26.09 26.09 0 0 1-1.39 15.78l-1.36 3.26A.93.93 0 0 0 18.6 27a.92.92 0 0 0 .36.07.93.93 0 0 0 .86-.57l1.36-3.25a27.94 27.94 0 0 0 1.49-16.92zM51.33 33.59a2.8 2.8 0 1 0 2.8 2.8 2.8 2.8 0 0 0-2.8-2.8zm0 3.73a.93.93 0 1 1 .93-.93.93.93 0 0 1-.93.93zM28.93 7.46a2.8 2.8 0 1 0 2.8 2.8 2.8 2.8 0 0 0-2.8-2.8zm0 3.73a.93.93 0 1 1 .93-.93.93.93 0 0 1-.93.94zM20.53 3.73a1.87 1.87 0 1 0-1.87-1.87 1.87 1.87 0 0 0 1.87 1.87zM46.67 4.66a.93.93 0 0 0-.93.93v.93a.93.93 0 0 0 1.87 0V5.6a.93.93 0 0 0-.94-.94zM46.67 0a.93.93 0 0 0-.93.93v.93a.93.93 0 0 0 1.87 0V.93a.93.93 0 0 0-.94-.93zM49.47 2.8h-.93a.93.93 0 1 0 0 1.87h.93a.93.93 0 1 0 0-1.87zM44.8 2.8h-.93a.93.93 0 1 0 0 1.87h.93a.93.93 0 1 0 0-1.87zM40.13 10.24h-4.68a.93.93 0 0 0-.93.93v4.68a.93.93 0 0 0 .93.93h4.69a.93.93 0 0 0 .93-.93v-4.67a.93.93 0 0 0-.94-.94zm-.93 4.68h-2.82v-2.81h2.82zM33.34 18A.93.93 0 0 0 32 18l-9.33 8.4A.93.93 0 1 0 24 27.75l9.33-8.4a.93.93 0 0 0 .01-1.35zM50.4 21.46a.93.93 0 0 0-.93.93v.93a.93.93 0 0 0 1.87 0v-.93a.93.93 0 0 0-.94-.93zM54.36 21.3l-.66-.66A.93.93 0 0 0 52.38 22l.66.66a.93.93 0 0 0 1.32-1.32zM55.07 17.73h-.93a.93.93 0 1 0 0 1.87h.93a.93.93 0 1 0 0-1.87zM54.34 14.7a.93.93 0 0 0-1.3 0l-.66.66a.93.93 0 1 0 1.32 1.32l.66-.66a.93.93 0 0 0-.02-1.32zM50.4 13.06a.93.93 0 0 0-.93.93v.93a.93.93 0 0 0 1.87 0V14a.93.93 0 0 0-.94-.94zM48.42 15.36l-.66-.66a.93.93 0 0 0-1.32 1.3l.66.66a.93.93 0 0 0 1.32-1.32zM11.16 4a.93.93 0 0 0-.75-.63L7.66 3 6.44.52a1 1 0 0 0-1.67 0L3.54 3 .8 3.4A.93.93 0 0 0 .28 5l2 1.93-.48 2.72a.93.93 0 0 0 1.36 1L5.6 9.34l2.45 1.29a.93.93 0 0 0 1.35-1l-.46-2.71 2-1.93a.93.93 0 0 0 .22-.99zM7.28 5.93a.93.93 0 0 0-.28.82l.24 1.35L6 7.46a.93.93 0 0 0-.87 0L4 8.1l.23-1.35a.93.93 0 0 0-.26-.82l-1-1 1.35-.2A.93.93 0 0 0 5 4.27L5.6 3l.6 1.22a.93.93 0 0 0 .7.51L8.26 5zM52.85 46.77l-.38-.58a14.08 14.08 0 0 0-9.37-6.06.93.93 0 0 0-.32 1.87 12.21 12.21 0 0 1 7.12 4 5.51 5.51 0 0 0-3.73 2.56 3.73 3.73 0 0 0 6.52 3.64 5.41 5.41 0 0 0 .61-2.39 4.56 4.56 0 0 1 .2 4.84.93.93 0 0 0 1.61 1 6.51 6.51 0 0 0-2.26-8.88zm-1.79 4.47a1.87 1.87 0 0 1-3.27-1.8 3.5 3.5 0 0 1 2.53-1.64 1 1 0 0 1 .47.11c.79.41.83 2.31.27 3.32z"/></svg>