<svg data-name="Слой 1" xmlns="http://www.w3.org/2000/svg" viewBox="0 0 56 56"><defs/><path d="M1.55 19.34a3.26 3.26 0 0 0 1.45.31 4.29 4.29 0 0 0 .91-.1A3 3 0 0 0 6.46 16L4.39 6.55l8.7-1.9 1.53 7a4.1 4.1 0 0 0-1.63 0c-1.92.42-3 1.81-2.61 3.45a2.81 2.81 0 0 0 2.91 2.22 4.25 4.25 0 0 0 .9-.1 3 3 0 0 0 2.58-3.51L14 1.15A1.46 1.46 0 0 0 12.27 0L3.21 2A1.46 1.46 0 0 0 2.1 3.74l2.22 10.18a4.11 4.11 0 0 0-1.64 0 3.73 3.73 0 0 0-2 1.11 2.61 2.61 0 0 0-.58 2.34 2.71 2.71 0 0 0 1.45 1.97zm12.28-3.64c-.37.08-1.61.26-1.86-.87s.76-1.37 1.36-1.5a3 3 0 0 1 .63-.07 1.08 1.08 0 0 1 1.19.88c.25 1.12-.95 1.47-1.32 1.55zm-1.39-14l.3 1.3L4 4.94l-.3-1.37zM1.88 16.17A2.16 2.16 0 0 1 3 15.58a3 3 0 0 1 .63-.07 1.08 1.08 0 0 1 1.19.88c.25 1.13-1 1.48-1.33 1.56a2 2 0 0 1-1.27-.08 1.06 1.06 0 0 1-.58-.79 1 1 0 0 1 .24-.91zM55.88 41a1.45 1.45 0 0 0-.81-.77l-8.64-3.36a1.46 1.46 0 0 0-1.88.83l-3.78 9.72a4.06 4.06 0 0 0-1.39-.87 3.73 3.73 0 0 0-2.31-.2A2.61 2.61 0 0 0 35.3 48a2.71 2.71 0 0 0 .17 2.41 3.58 3.58 0 0 0 1.83 1.49 4 4 0 0 0 1.43.28 2.74 2.74 0 0 0 2.66-1.79l3.51-9 8.3 3.22-2.61 6.71a4.06 4.06 0 0 0-1.39-.87c-1.83-.71-3.48-.14-4.08 1.43a2.71 2.71 0 0 0 .17 2.41 3.58 3.58 0 0 0 1.83 1.46 4 4 0 0 0 1.44.28 2.74 2.74 0 0 0 2.66-1.79l4.68-12.08a1.45 1.45 0 0 0-.02-1.16zm-18 9.33a2 2 0 0 1-1-.77 1.06 1.06 0 0 1-.05-1 1 1 0 0 1 .67-.56 1.42 1.42 0 0 1 .37 0 2.58 2.58 0 0 1 .92.19 2.08 2.08 0 0 1 1 .75 1 1 0 0 1 0 .93c-.35 1.01-1.54.64-1.9.5zm7.62-10.51l.5-1.31 8.3 3.22-.5 1.27zm2.22 14.37a2 2 0 0 1-1-.77 1.06 1.06 0 0 1-.05-1 1 1 0 0 1 1-.69 2.66 2.66 0 0 1 .92.2 2.08 2.08 0 0 1 1 .75 1 1 0 0 1 0 .93c-.32 1.08-1.51.72-1.87.58zM24.09 52.25c-5 3.67-12.72 2.47-17.86-2.79a15.59 15.59 0 0 1-4.59-11 11.16 11.16 0 0 1 3.37-8 10.93 10.93 0 0 1 5.55-2.78 13.28 13.28 0 0 0 7.4-4 .82.82 0 0 0-1.2-1.12A11.66 11.66 0 0 1 10.27 26a12.57 12.57 0 0 0-6.38 3.2A12.79 12.79 0 0 0 0 38.39a17.23 17.23 0 0 0 5.06 12.22A17.38 17.38 0 0 0 17.32 56a13.06 13.06 0 0 0 7.74-2.42.82.82 0 1 0-1-1.33z"/><path d="M38.26 35.75a8 8 0 0 0 2.37-6.39 13.09 13.09 0 0 0-2.15-6l5.24-5.24a.82.82 0 1 0-1.16-1.16L28 31.44A6.32 6.32 0 0 0 24.56 28l17.08-17.13 3.48 3.48-.1.1a.82.82 0 0 0 1.16 1.16l.21-.21a1.35 1.35 0 0 0 .41.06 1.36 1.36 0 0 0 1-.46l.87-1 .93.93a.82.82 0 1 0 1.16-1.16l-1-1 1.37-1.56 1 1A.82.82 0 0 0 53.28 11l-1-1 1.36-1.54.71.71A.82.82 0 0 0 55.46 8l-.78-.78 1-1.12a1.36 1.36 0 0 0-.06-1.86L51.77.4a1.36 1.36 0 0 0-1.86-.06l-1.12 1-.79-.8a.82.82 0 0 0-1.15 1.16l.71.71L46 3.77l-1-1.06a.82.82 0 1 0-1.16 1.16l1 1-1.62 1.36-1-1a.82.82 0 0 0-1.16 1.16l.93.93-1 .87a1.35 1.35 0 0 0-.4 1.41l-7.91 7.91c-4.61-3-9.26-3-12.24 0a10.84 10.84 0 0 0-1.8 2.29.82.82 0 1 0 1.42.81 9.26 9.26 0 0 1 1.53-1.94c3.26-3.26 7.73-1.27 9.88 0l-8.82 8.82h-.47a6.29 6.29 0 1 0 6.29 6.29v-.47l8.81-8.81c1.29 2.17 3.23 6.67-.18 10.08A8 8 0 0 1 35.27 36a13.43 13.43 0 0 0-6.95 9.45A11 11 0 0 1 26.39 50a.82.82 0 1 0 1.32 1 12.59 12.59 0 0 0 2.23-5.23 11.82 11.82 0 0 1 6.12-8.31 9.65 9.65 0 0 0 2.2-1.71zm12.53-34l3.46 3.46-7.47 8.48-4.47-4.47zm-25.3 35.33a4.65 4.65 0 1 1 1.36-3.29 4.62 4.62 0 0 1-1.36 3.29zM7 36.62a2.84 2.84 0 0 0 0 4L15.35 49a2.84 2.84 0 0 0 4-4L11 36.62a2.84 2.84 0 0 0-4 0zm11.23 9.54a1.2 1.2 0 1 1-1.7 1.7l-8.39-8.38a1.2 1.2 0 1 1 1.7-1.7z"/><path d="M41.23 17.32a.82.82 0 0 0 .58-1.4l-1.75-1.75a.82.82 0 0 0-1.16 1.16l1.75 1.75a.82.82 0 0 0 .58.24zM38.81 19.74a.82.82 0 0 0 .58-1.4l-1.75-1.75a.82.82 0 0 0-1.16 1.16l1.75 1.75a.82.82 0 0 0 .58.24zM36.39 22.17a.82.82 0 0 0 .58-1.4L35.21 19a.82.82 0 0 0-1.16 1.16l1.75 1.75a.82.82 0 0 0 .59.26zM34 24.59a.82.82 0 0 0 .58-1.4l-1.75-1.75a.82.82 0 0 0-1.16 1.16l1.75 1.75a.82.82 0 0 0 .58.24zM29.21 23.87a.82.82 0 0 0 0 1.16L31 26.78a.82.82 0 0 0 1.16-1.16l-1.75-1.75a.82.82 0 0 0-1.2 0zM45.68 8.37a.82.82 0 1 0 0 1.16.82.82 0 0 0 0-1.16zM47.64 10.32a.82.82 0 1 0 0 1.16.82.82 0 0 0 0-1.16zM48.14 5.91a.82.82 0 1 0 0 1.16.82.82 0 0 0 0-1.16zM50.11 7.86a.82.82 0 1 0 0 1.16.82.82 0 0 0 0-1.16zM50.6 3.44a.82.82 0 1 0 0 1.16.82.82 0 0 0 0-1.16zM52.57 5.4a.82.82 0 1 0 0 1.16.82.82 0 0 0 0-1.16z"/></svg>