<svg data-name="Слой 1" xmlns="http://www.w3.org/2000/svg" viewBox="0 0 56 56"><defs/><path d="M24.5 9.75a.75.75 0 0 0 0 1.5zm7 1.5a.75.75 0 0 0 0-1.5zm19 8.5a.75.75 0 0 0 0-1.5zm-2.5-1.5a.75.75 0 0 0 0 1.5zm-3.5 1.5a.75.75 0 0 0 0-1.5zm-1-1.5a.75.75 0 0 0 0 1.5zM36.79 7.78l-.69.3zM4 50.75h48v-1.5H4zM16.69 15.3l3.21-7.22-1.37-.61-3.22 7.23zM22 6.75h12.1v-1.5H22zm30 7.5H40v1.5h12zm-12 0H16v1.5h24zm-3.89-6.16l3.21 7.22 1.37-.61-3.21-7.22zM24.5 11.25h7v-1.5h-7zm-19 3H4v1.5h1.5zm.75.75v-2.5h-1.5V15zm1.25-3.75h3v-1.5h-3zm8.5 3h-3.5v1.5H16zm-3.5 0h-7v1.5h7zm-.75-1.75V15h1.5v-2.5zM.25 18v6h1.5v-6zm55.5 6v-6h-1.5v6zM.25 24v17h1.5V24zm0 17v6h1.5v-6zm55.5 6v-6h-1.5v6zm0-6V24h-1.5v17zM1 24.75h16.5v-1.5H1zm37.5 0H55v-1.5H38.5zM1 41.75h17.5v-1.5H1zm36.5 0H55v-1.5H37.5zm13-23.5H48v1.5h2.5zm-6 0h-1v1.5h1zM34 6.75a2.25 2.25 0 0 1 2.06 1.34l1.37-.61A3.75 3.75 0 0 0 34 5.25zm18 9A2.25 2.25 0 0 1 54.25 18h1.5A3.75 3.75 0 0 0 52 14.25zm0 35A3.75 3.75 0 0 0 55.75 47h-1.5A2.25 2.25 0 0 1 52 49.25zm-41.5-39.5a1.25 1.25 0 0 1 1.25 1.25h1.5a2.75 2.75 0 0 0-2.75-2.75zm-6.5 38A2.25 2.25 0 0 1 1.75 47H.25A3.75 3.75 0 0 0 4 50.75zM19.89 8.09a2.25 2.25 0 0 1 2.06-1.34v-1.5a3.75 3.75 0 0 0-3.43 2.23zM6.25 12.5a1.25 1.25 0 0 1 1.25-1.25v-1.5a2.75 2.75 0 0 0-2.75 2.75h1.5zM4 14.25A3.75 3.75 0 0 0 .25 18h1.5A2.25 2.25 0 0 1 4 15.75z"/><circle cx="28" cy="32" r="13"/><circle cx="28" cy="32" r="8"/><path d="M23.25 32a.75.75 0 0 0 1.5 0zM28 28.75a.75.75 0 0 0 0-1.5zM24.75 32A3.25 3.25 0 0 1 28 28.75v-1.5A4.75 4.75 0 0 0 23.25 32z"/></svg>