<svg data-name="Слой 1" xmlns="http://www.w3.org/2000/svg" viewBox="0 0 56 47.92"><defs/><path d="M20.2 18.75a3.34 3.34 0 1 0 3.35 3.34 3.35 3.35 0 0 0-3.35-3.34zm0 5a1.7 1.7 0 1 1 1.71-1.7 1.7 1.7 0 0 1-1.71 1.74zM28.92 18.75a3.34 3.34 0 1 0 3.35 3.34 3.35 3.35 0 0 0-3.35-3.34zm0 5a1.7 1.7 0 1 1 1.71-1.7 1.7 1.7 0 0 1-1.71 1.74zM37.65 18.75A3.34 3.34 0 1 0 41 22.09a3.35 3.35 0 0 0-3.35-3.34zm0 5a1.7 1.7 0 1 1 1.71-1.7 1.7 1.7 0 0 1-1.71 1.74zM20.2 26.89a3.34 3.34 0 1 0 3.35 3.34 3.35 3.35 0 0 0-3.35-3.34zm0 5a1.7 1.7 0 1 1 1.71-1.7 1.7 1.7 0 0 1-1.71 1.74zM37.65 26.89A3.34 3.34 0 1 0 41 30.23a3.35 3.35 0 0 0-3.35-3.34zm0 5a1.7 1.7 0 1 1 1.71-1.7 1.7 1.7 0 0 1-1.71 1.74zM28.92 26.89a3.34 3.34 0 1 0 3.35 3.34 3.35 3.35 0 0 0-3.35-3.34zm0 5a1.7 1.7 0 1 1 1.71-1.7 1.7 1.7 0 0 1-1.71 1.74zM28.92 35a3.34 3.34 0 1 0 3.35 3.34A3.35 3.35 0 0 0 28.92 35zm0 5a1.7 1.7 0 1 1 1.71-1.7 1.7 1.7 0 0 1-1.71 1.77zM20.2 35a3.34 3.34 0 1 0 3.35 3.34A3.35 3.35 0 0 0 20.2 35zm0 5a1.7 1.7 0 1 1 1.71-1.7 1.7 1.7 0 0 1-1.71 1.77zM12.64 22.09l1.21-1.2a.82.82 0 1 0-1.16-1.16l-1.21 1.2-1.21-1.2a.82.82 0 1 0-1.16 1.16l1.21 1.2-1.21 1.2a.82.82 0 0 0 1.16 1.16l1.21-1.2 1.21 1.2a.82.82 0 1 0 1.16-1.16zM12.64 30.23l1.2-1.23a.82.82 0 1 0-1.16-1.16l-1.21 1.2-1.21-1.2A.82.82 0 1 0 9.11 29l1.21 1.2-1.21 1.2a.82.82 0 0 0 1.16 1.16l1.21-1.2 1.21 1.2a.82.82 0 0 0 1.16-1.16zM13.84 39.57l-1.21-1.2 1.21-1.2A.82.82 0 0 0 12.68 36l-1.21 1.2-1.2-1.2a.82.82 0 1 0-1.16 1.16l1.21 1.2-1.21 1.2a.82.82 0 0 0 1.16 1.16l1.21-1.2 1.21 1.2a.82.82 0 0 0 1.16-1.16z"/><path d="M56 42l-2.28-11.74a.82.82 0 0 0-1.61.31l2.24 11.74a1.13 1.13 0 0 1-1.19 1.28H41l7.87-7.85a.83.83 0 0 0 .24-.58V14.95l2.25 11.81a.82.82 0 0 0 1.64-.31l-3.88-20.3A2.28 2.28 0 0 0 46.84 4h-7.19V1.35a.82.82 0 0 0-1.64 0V4h-5.49V1.35a.82.82 0 0 0-1.64 0V4h-5.5V1.35a.82.82 0 0 0-1.64 0V4h-5.49V1.35a.82.82 0 0 0-1.64 0V4h-5.5V1.35a.82.82 0 0 0-1.64 0V4H2.28A2.28 2.28 0 0 0 0 6.26v38.9a2.28 2.28 0 0 0 2.28 2.28h20.37a.82.82 0 1 0 0-1.64H2.28a.64.64 0 0 1-.64-.64V14.6h45.85v19.74h-9.21A2.28 2.28 0 0 0 36 36.62v9.18h-9.52a.82.82 0 1 0 0 1.64h10.33a.83.83 0 0 0 .58-.24l2-2h13.76A2.76 2.76 0 0 0 56 42zM1.64 13V6.26a.64.64 0 0 1 .64-.64h7.19v3.67a.82.82 0 0 0 1.64 0V5.62h5.49v3.67a.82.82 0 0 0 1.64 0V5.62h5.49v3.67a.82.82 0 0 0 1.64 0V5.62h5.49v3.67a.82.82 0 0 0 1.64 0V5.62H38v3.67a.82.82 0 0 0 1.64 0V5.62h7.19a.64.64 0 0 1 .64.64V13H1.64zm36 31.67v-8a.64.64 0 0 1 .64-.64h8z"/></svg>