<svg data-name="Слой 1" xmlns="http://www.w3.org/2000/svg" viewBox="0 0 50.25 54.75"><defs/><path d="M7.84 53.38a.75.75 0 1 0 1.5 0zM1.13 12.29v-.75a.75.75 0 0 0-.75.75zM8.18 26h-.75a.75.75 0 0 0 .75.76zm10.55 14.28a.75.75 0 0 0 1.5 0zm5.65 12.9a.75.75 0 0 0 1.5 0zM11.47 17.65a.75.75 0 0 0 1.5 0zm5.45-2.78a.75.75 0 1 0 1.5 0zm5.45.6a.75.75 0 1 0 1.5 0zm18.54 37.91a.75.75 0 0 0 1.5 0zm.9-5.37l.61.43zm6.59-9.29l.61.43zm.73-26.43h.75a.75.75 0 0 0-.75-.75zM42 18.73zm.07 7.27v.75a.75.75 0 0 0 .75-.76zM30 40.28a.75.75 0 0 0 1.5 0zm1.82-25.4a.75.75 0 1 0 1.5 0zm5.45 2.78a.75.75 0 1 0 1.5 0zm-10.88-2.19a.75.75 0 1 0 1.5 0zm-1.27 2.41l-.56.5.56.64.56-.64zM8.22 47.69l-.61.43zm1.12 5.68v-4.52h-1.5v4.52zm-.51-6.11l-5.25-7.4-1.22.87 5.25 7.4zm-7-12.75V12.29H.38v22.22zM1.13 13h.16v-1.5h-.16zm6.41 6.34L7.43 26h1.5L9 19.41zM8.18 26v.75h1.3v-1.5h-1.3zm10.55 10v4.29h1.5V36zm7.15 17.19V41.47h-1.5v11.71zm-.21-12.24L20 35.19l-1.07 1.05L24.59 42zM7.52 14.67V6.88H6v7.8zm10.89.2V4.1h-1.5v10.77zm-6.95-8v.25H13v-.24zm0 .25v10.53H13V7.13zm0-3v3H13v-3zm12.4 11.35v-4.82h-1.5v4.82zm-6.95-4.82v3.23h1.5v-3.23zm25.5 42.73v-4.92h-1.5v4.91zm0-4.93l6.59-9.3-1.22-.87-6.58 9.3zm7.46-12V12.29h-1.5v24.16zm-.75-24.91h-.71V13h.71zm-7.92 7.2l.12 7.26h1.5l-.11-7.25zm.86 6.49h-.8v1.5h.8zM30 36.31v4h1.5v-4zM25.66 42l5.65-5.76-1.07-1.05-5.65 5.76zm18.57-27.33v-.12h-1.5v.12zm0-.12V6.83h-1.5v7.72zm-10.89.32v-1h-1.5v1zm0-1V10.6h-1.5v3.27zm0-3.27V4.05h-1.5v6.55zm3.95-3.77v.3h1.5v-.3zm0 .3v10.52h1.5V7.13zm0-3.08v2.78h1.5V4.05zm-9.4 11.42V10.6h-1.5v4.86zm2-6.79a2 2 0 0 1 2 1.93h1.5a3.45 3.45 0 0 0-3.47-3.43zm-2 1.93a2 2 0 0 1 2-1.93V7.17a3.45 3.45 0 0 0-3.47 3.43zm5.45-6.55a2 2 0 0 1 2-1.93V.63a3.45 3.45 0 0 0-3.47 3.43zm15.08 7.49a7.23 7.23 0 0 0-5.5 2.52L44 15a5.73 5.73 0 0 1 4.37-2zm-5.5 2.52a7 7 0 0 0-1.7 4.68h1.5A5.51 5.51 0 0 1 44 15zm-.5 34.4l-1.22-.87a1.54 1.54 0 0 0-.28.89zm1.81-41.64a3.45 3.45 0 0 0-3.47-3.43v1.5a2 2 0 0 1 2 1.93zM40.76 3.4a3.45 3.45 0 0 0-3.47 3.43h1.5a2 2 0 0 1 2-1.93zM49 39.15a4.68 4.68 0 0 0 .86-2.71h-1.5a3.18 3.18 0 0 1-.59 1.84zm-13.7-37a2 2 0 0 1 2 1.93h1.5A3.45 3.45 0 0 0 35.31.63zm6 23.11A11.16 11.16 0 0 0 30 36.31h1.5a9.66 9.66 0 0 1 9.74-9.57zm-29.91-2a7.45 7.45 0 0 1 7.52-7.39v-1.5a9 9 0 0 0-9 8.89zm20-7.39a7.45 7.45 0 0 1 7.52 7.39h1.5a9 9 0 0 0-9-8.89zm-5.69 2.56a7.56 7.56 0 0 1 5.69-2.56v-1.5a9.06 9.06 0 0 0-6.82 3.07zm-6.82-2.56a7.56 7.56 0 0 1 5.69 2.56l1.13-1a9.06 9.06 0 0 0-6.82-3.07zm-7 10a7.25 7.25 0 0 1-.49-2.62H9.85a8.76 8.76 0 0 0 .59 3.16zm27.02-2.66a7.25 7.25 0 0 1-.59 2.88l1.38.59a8.75 8.75 0 0 0 .71-3.47zm-18.51-16a3.47 3.47 0 0 0-3.47 3.47h1.5a2 2 0 0 1 2-2zm3.47 3.47a3.47 3.47 0 0 0-3.47-3.47v1.5a2 2 0 0 1 2 2zM18.41 4.1A3.47 3.47 0 0 0 14.94.63v1.5a2 2 0 0 1 2 2zM1.28 13a6.25 6.25 0 0 1 6.25 6.34h1.5a7.75 7.75 0 0 0-7.75-7.86zm8.06 35.85a2.75 2.75 0 0 0-.51-1.59l-1.22.87a1.25 1.25 0 0 1 .23.72zm-1.82-42a2 2 0 0 1 2-2V3.4A3.47 3.47 0 0 0 6 6.88zm2-2a2 2 0 0 1 2 2H13A3.47 3.47 0 0 0 9.49 3.4zm-5.91 35A9.25 9.25 0 0 1 1.9 34.5H.38a10.75 10.75 0 0 0 2 6.22zM14.94.63a3.47 3.47 0 0 0-3.47 3.47H13a2 2 0 0 1 2-2zM9.48 26.74A9.25 9.25 0 0 1 18.73 36h1.5A10.75 10.75 0 0 0 9.48 25.24z"/></svg>