<svg xmlns="http://www.w3.org/2000/svg" viewBox="0 0 56.2 51.3"><g data-name="Слой 2"><g data-name="Слой 1"><path d="M41.4 16.8l.7-.3a.67.67 0 0 0-.7-.4zm14 25.9v.8a.77.77 0 0 0 .7-.8zm-7.7-11.2l-.7.3a.75.75 0 0 0 .7.5zm3.5 8.4h-.8a.79.79 0 0 0 .8.8zm0-3.5v-.8a.79.79 0 0 0-.8.8zM30.9 20.3v-.8a.79.79 0 0 0-.8.8zm0 9.1h-.8a.79.79 0 0 0 .8.8zm15.9 0l.7-.3zm-11.7-5.6a.79.79 0 0 0-.8-.8.74.74 0 0 0-.8.8zm-.7 2.8h-.8a.79.79 0 0 0 .8.8zm3.5.8a.79.79 0 0 0 .8-.8.74.74 0 0 0-.8-.8zm-10.5-7h.7a.79.79 0 0 0-.8-.8v.8zM5 20.4v-.8a.79.79 0 0 0-.8.8zm0 14.7h-.7a.79.79 0 0 0 .8.8zm22.4 0v.8a.77.77 0 0 0 .8-.7v-.1zm-18.9-12h-.8a.79.79 0 0 0 .8.8zm4.2 0v.8a.79.79 0 0 0 .8-.8zm6.3 0h-.8a.79.79 0 0 0 .8.8zm4.2 0v.8a.79.79 0 0 0 .8-.8zM8.5 27.3a.79.79 0 0 0-.8.8.74.74 0 0 0 .8.8zm4.2 1.5a.79.79 0 0 0 .8-.8.71.71 0 0 0-.8-.7zm6.3-1.5a.79.79 0 0 0-.8.8.74.74 0 0 0 .8.8zm4.2 1.5a.79.79 0 0 0 .8-.8.71.71 0 0 0-.8-.7zm-6.6.6a.79.79 0 0 0-.8-.8.71.71 0 0 0-.7.8zm22.7 4.9a.79.79 0 0 0-.8.8.74.74 0 0 0 .8.8zm2.8 1.5a.79.79 0 0 0 .8-.8.71.71 0 0 0-.8-.7zM7.1 4.1a.79.79 0 0 0-.8.8.71.71 0 0 0 .8.7zm27.3 1.5a.68.68 0 0 0 .7-.7.79.79 0 0 0-.8-.8v1.5zm-25.9 2a.86.86 0 0 0-.8.8.77.77 0 0 0 .8.7zM33 9.1a.79.79 0 0 0 .8-.8.74.74 0 0 0-.8-.8zM.8 49.7a.79.79 0 0 0-.8.8.74.74 0 0 0 .8.8zm54.6 1.4a.79.79 0 0 0 .8-.8.74.74 0 0 0-.8-.8zm-51.1 0a.79.79 0 0 0 .8-.8.74.74 0 0 0-.8-.8zm32.9 0a.79.79 0 0 0 .8-.8.74.74 0 0 0-.8-.8zM0 18.8v21.9h1.5V18.8zm2.8 24.7h2.9V42H2.8zm47.7-12.7h-2.8v1.5h2.8zm5.6 11.9v-2.8h-1.5v2.8zm-.7-3.6h-4.2v1.5h4.2zm-3.5.8v-3.5h-1.5v3.5zm4.2 0v-3.5h-1.5v3.5zm-4.9-2.8h4.2v-1.5h-4.2zM43.6 20l-1.5-3.5-1.4.6 1.5 3.5zm-.7-.4h-12v1.6h12zm-12.8.7v9.1h1.5v-9.1zm18.3 10.9l-.9-2.1-1.4.6.9 2.1zm-.9-2.1L43.6 20l-1.4.6 3.9 9.1zm-16.6 1h15.9v-1.5H30.9zm2.7-6.3v2.8h1.5v-2.7zm.8 3.5h3.5v-1.5h-3.5zM5 35.8h22.4v-1.5H5zm-.7-15.5v11.2h1.5V20.3zm0 11.2V35h1.5v-3.5zM28.1 35v-3.5h-1.5V35zm0-3.5V20.3h-1.5v11.2zM8.5 19.6H5v1.5h3.5zm-.8.7v2.8h1.5v-2.8zm.8 3.6h4.2v-1.5H8.5zm4.2-4.3H8.5v1.5h4.2zm.8 3.5v-2.8H12v2.8zm5.5-3.5h-6.3v1.5H19zm-.7.7v2.8h1.5v-2.8zm.7 3.6h4.2v-1.5H19zm8.4-4.3h-4.2v1.5h4.2zm-4.2 0H19v1.5h4.2zm.8 3.5v-2.8h-1.5v2.8zM8.5 28.8h2.1v-1.5H8.5zm2.1 0h2.1v-1.5h-2.1zM5 32.3h5.6v-1.5H5zM9.9 28v3.5h1.5V28zm11.2 4.3h6.3v-1.5h-6.3zm.8-.8V28h-1.5v3.5zm-.8-4.2H19v1.5h2.1zm0 1.5h2.1v-1.5h-2.1zm-10.5 3.5h5.3v-1.5h-5.3zm5.3 0h5.2v-1.5h-5.3v1.5zm.7-.8v-2.1h-1.5v2.1zm22.7 4.3h2.8v-1.5h-2.8zM7.8 16.1h-5v1.5h5zm.7.8v-4.3H7v4.2zm-.7-5H4.9v1.5h2.9zm-4.1-1.3V2.7H2.1v7.9zm1.2-9.1h31.7V0H4.9zm33 1.2v7.9h1.5V2.7zm-1.3 9.2h-2.9v1.5h2.9zm4.8 4.2h-7.7v1.5h7.7zm-8.5-3.5v4.2h1.5v-4.2zm-21.6 3.5H7.8v1.5h3.5zm.7.8v-4.3h-1.5v4.2zm-.7-3.5h18.9v-1.5H11.3zm22.4 2.7h-3.5v1.5h3.5zm-3.5 0H11.3v1.5h18.9zm-.8-3.4v4.2h1.5v-4.3zm-21.6.7h3.5v-1.5H7.8zm22.4 0h3.5v-1.5h-3.5zM7.1 5.7h27.3V4.1H7.1zm1.4 3.5H33V7.7H8.5zm8.1 34.3H39V42H16.6zm32.9 0h6V42h-6zM.8 51.1h3.5v-1.5H.8zm43.4 0h11.2v-1.5H44.2zm-32.9 0h25.9v-1.5H11.3zM36.6 1.5a1.32 1.32 0 0 1 1.3 1.3h1.5A2.8 2.8 0 0 0 36.6 0zm1.3 9.1a1.32 1.32 0 0 1-1.3 1.3v1.5a2.8 2.8 0 0 0 2.8-2.8zm12.6 21.7a4.21 4.21 0 0 1 4.2 4.1h1.4a5.59 5.59 0 0 0-5.6-5.6zM3.7 2.7A1.32 1.32 0 0 1 5 1.4V0a2.8 2.8 0 0 0-2.9 2.7v.1h1.6zm-3.6 38a2.78 2.78 0 0 0 2.7 2.8V42a1.32 1.32 0 0 1-1.3-1.3zm4.8-28.8a1.32 1.32 0 0 1-1.3-1.3H2.1a2.78 2.78 0 0 0 2.7 2.8h.1zm-3.3 7a1.24 1.24 0 0 1 1.2-1.3h.1v-1.5a2.84 2.84 0 0 0-2.8 2.7z" fill="#2d2a26"/><circle cx="11.3" cy="44.8" r="5.6" fill="none" stroke="#2d2a26" stroke-linecap="round" stroke-width="1.5"/><circle cx="11.3" cy="44.8" r="2.1" fill="none" stroke="#2d2a26" stroke-linecap="round" stroke-width="1.5"/><circle cx="44.2" cy="44.8" r="5.6" fill="none" stroke="#2d2a26" stroke-linecap="round" stroke-width="1.5"/><circle cx="44.2" cy="44.8" r="2.1" fill="none" stroke="#2d2a26" stroke-linecap="round" stroke-width="1.5"/></g></g></svg>