<svg data-name="Слой 1" xmlns="http://www.w3.org/2000/svg" viewBox="0 0 56 48.63"><defs/><path d="M36.5 1.38h.75a.75.75 0 0 0-.75-.75zm0 36.5v.75a.75.75 0 0 0 .75-.75zm-32-9.75a.75.75 0 0 0 0 1.5zm35.5-22a.75.75 0 0 0 0 1.5zm0 14.5a.75.75 0 0 0 0 1.5zm15 17.25v.75a.75.75 0 0 0 .75-.75zm-2-9.75a.75.75 0 0 0 0 1.5zm-4.83-9.91a.75.75 0 0 0-1.34-.67zM1 46.63a.75.75 0 0 0 0 1.5zm54 1.5a.75.75 0 0 0 0-1.5zm-41 0a.75.75 0 0 0 0-1.5zm6-1.5a.75.75 0 0 0 0 1.5zm9 1.5a.75.75 0 0 0 0-1.5zm5-1.5a.75.75 0 0 0 0 1.5zm3 1.5a.75.75 0 0 0 0-1.5zm3-1.5a.75.75 0 0 0 0 1.5zm-35-8a.75.75 0 0 0 0-1.5zm49.26-14.1l.56-.49zm-4-15l-.75.08zM1.75 34.88V4.38H.25v30.5zM4 2.13h32.5V.63H4zm31.75-.75v27.5h1.5V1.38zm0 27.5v9h1.5v-9zm.75-.75h-32v1.5h32zM40 7.63h7.29v-1.5H40zm9.53 2l1.22 11.81 1.49-.15L51 9.49zm1.4 12.23L53.69 25l1.13-1-2.76-3.15zM55 37.13h-3v1.5h3zm-.75-10.63v2.37h1.5V26.5zm0 2.37v9h1.5v-9zm.75-.75h-2v1.5h2zm-3.5-7.5h-5.75v1.5h5.75zm-5.75 0H40v1.5h5.75zm.67 1.09l1.75-3.5-1.34-.67L45.08 21zM1 48.13h13v-1.5H1zm19 0h9v-1.5h-9zm14 0h3v-1.5h-3zm6 0h15v-1.5H40zm-3.5-11H20v1.5h16.5zm-31.5 0H4v1.5h1zM53.69 25a2.25 2.25 0 0 1 .56 1.48h1.5a3.75 3.75 0 0 0-.93-2.48zM1.75 4.38A2.25 2.25 0 0 1 4 2.13V.63A3.75 3.75 0 0 0 .25 4.38zm45.54 3.25a2.25 2.25 0 0 1 2.24 2L51 9.49a3.75 3.75 0 0 0-3.73-3.36zM.25 34.88A3.75 3.75 0 0 0 4 38.63v-1.5a2.25 2.25 0 0 1-2.25-2.25z"/><circle cx="14" cy="38.38" r="6"/><circle cx="14" cy="38.38" r="2"/><circle cx="46" cy="38.38" r="6"/><circle cx="46" cy="38.38" r="2"/></svg>