<svg data-name="Слой 1" xmlns="http://www.w3.org/2000/svg" viewBox="0 0 56 56"><defs/><path d="M13 7.61a.75.75 0 0 0 0 1.5zm30 1.5a.75.75 0 0 0 0-1.5zm-30 5.64l-.7-.27v.27zm30 0h.75v-.27zM16.87 14a.75.75 0 0 0 0 1.5zm1 1.5a.75.75 0 0 0 0-1.5zm2.9-1.5a.75.75 0 0 0 0 1.5zm16.4-8.92L36.4 5zM13 9.11h2.42v-1.5H13zm1.72-1l-2.42 6.37 1.4.53 2.42-6.38zm3.68 47.64h19.2v-1.5H18.4zM40.58 9.11H43v-1.5h-2.42zm3.12 5.37L41.28 8.1l-1.4.53L42.3 15zM13 50.35h30v-1.5H13zM17.84 14h-1v1.5h1zM43 14H20.74v1.5H43zm-30.75.75V28h1.5V14.75zM43.75 28V14.75h-1.5V28zm-31.5 0v8.84h1.5V28zm0 8.84V49.6h1.5V36.84zm31.5 12.76V36.84h-1.5V49.6zm0-12.76V28h-1.5v8.84zM13 28.75h6.29v-1.5H13zm7-.75v-.13h-1.5V28zm16.67.75H43v-1.5h-6.29zm-.67-.88V28h1.5v-.13zm-23 9.72h6.29v-1.5H13zM18.54 28v8.84H20V28zm18.17 9.59H43v-1.5h-6.29zM36 28v7.62h1.5v-6.41H36zm0 8.84zM20 37v-.13h-1.5V37zm11.6-4.58a3.64 3.64 0 0 1-3.6 3.67v1.5a5.14 5.14 0 0 0 5.1-5.17zM28 36.09a3.64 3.64 0 0 1-3.6-3.67h-1.5a5.14 5.14 0 0 0 5.1 5.17zm-3.6-3.67a3.64 3.64 0 0 1 3.6-3.67v-1.5a5.14 5.14 0 0 0-5.1 5.17zm3.6-3.67a3.64 3.64 0 0 1 3.6 3.67h1.5a5.14 5.14 0 0 0-5.1-5.17zM15.42 9.11h15v-1.5h-15zm15.74-.85L30.73 5l-1.49.2.43 3.29zm-.74.85h6.29v-1.5h-6.29zm6.29 0h3.87v-1.5h-3.87zM36.4 5L36 8.27l1.49.2.43-3.29zm-2.84-3.25A2.86 2.86 0 0 1 36.4 5l1.49.2A4.36 4.36 0 0 0 33.56.25zM28 44.92a8 8 0 0 1-8-8h-1.5a9.46 9.46 0 0 0 9.5 9.5zm8-8a8 8 0 0 1-8 8v1.5A9.46 9.46 0 0 0 37.46 37zm-16-9.05a8 8 0 0 1 8-8v-1.5a9.46 9.46 0 0 0-9.46 9.46zm17.6 27.88a6.15 6.15 0 0 0 6.15-6.15h-1.5a4.65 4.65 0 0 1-4.65 4.65zM30.73 5a2.86 2.86 0 0 1 2.83-3.23V.25a4.36 4.36 0 0 0-4.32 4.93zM28 19.91a8 8 0 0 1 8 8h1.5a9.46 9.46 0 0 0-9.5-9.5zm-9.6 34.34a4.65 4.65 0 0 1-4.65-4.65h-1.5a6.15 6.15 0 0 0 6.15 6.15z"/></svg>