<svg data-name="Слой 1" xmlns="http://www.w3.org/2000/svg" viewBox="0 0 58 58"><path d="M56.3 57a.75.75 0 0 0 0-1.5zM1.7 55.55a.75.75 0 1 0 0 1.5zM26.2 31.8l.16-.73h-.16zm1.52 10.61l.74-.11zM11.5 36.7l.57-.49a.75.75 0 0 0-.57-.26zm10.5 0v-.75a.75.75 0 0 0-.53.22zM8.05 42.41a.75.75 0 0 0-1.5 0zM22.7 46.5l.57-.49a.75.75 0 0 0-.57-.26zm4.2 4.9l-.57.49a.75.75 0 0 0 1.15 0zm-14-26.65a.75.75 0 1 0 0 1.5zm1.4 1.5a.75.75 0 0 0 0-1.5zm4.2.6a.75.75 0 0 0 0 1.5zm1.4 1.5a.75.75 0 0 0 0-1.5zm4.2-3.6a.75.75 0 0 0 0 1.5zm1.4 1.5a.75.75 0 0 0 0-1.5zm29 5.55l.74.12a.75.75 0 0 0-.89-.85zm-5.25 1l-.15-.74a.75.75 0 0 0-.59.59zm-18.2 0l.74-.15a.75.75 0 0 0-.58-.59zm20.3-.42l.15.74zm0-5.53h.75a.75.75 0 0 0-.75-.75zm-4.9-2.8h.75a.75.75 0 0 0-.75-.75zM42.3 22h.7a.75.75 0 0 0-.75-.75zm-4.9 0v-.75a.75.75 0 0 0-.75.75zm0 17.5l-.2.72zm-4.9-15.4v-.75a.75.75 0 0 0-.75.75zm0 11.9l-.62.42zm-4.2-7.7v-.75a.75.75 0 0 0-.75.75zm18.2 9.3l.5.56zm-4.2 2.06l.14.74zM3.1 57a.75.75 0 0 0 0-1.5zm3.49-14.69zm6.91-21H16v-1.5h-2.49zm3.29-.85L15.39 10l-1.49.2 1.4 10.5zM45.15 9.12V8.7h-1.5v.42zm-33-.42v.42h1.5V8.7zm1.73 2.15h.77v-1.5h-.77zm3.27-5.65v-.5h-1.5v.5zm2.25-2.75h18.5V.95H19.4zm21.5 2H16.4v1.5h24.5zm-.75.25v.5h1.5v-.5zM26.2 31H7.3v1.5h18.9zM7.3 31h-2v1.5h2zm-.75.75zm.75 4.15h-.69v1.5h.69zm0 1.5h4.2v-1.5H7.3zm-.71 5.61h9.81v-1.5H6.59zm9.81 0l11.32.05v-1.5l-11.32.05zm-5.46-5.92l4.9 5.66 1.13-1-4.9-5.66zm6 5.69l5.6-5.66-1.07-1.06-5.6 5.66zm11.52-.58l-.82-5.71-1.49.21.85 5.81zm-.82-5.71l-.7-4.9-1.48.21.7 4.9zm-5.64.96h4.9v-1.5H22zm-15.45 5zm.75 3.34H4.55v1.5H7.3zM3 47.25V50h1.5v-2.75zm4.25 0H22.7v-1.5H7.3zM22.13 47l4.2 4.9 1.14-1-4.2-4.9zm8.31 9.21l-1-7.12-1.49.21 1 7.12zm-1-7.12l-1-6.77-1.44.19 1 6.77zm-1.94 2.8l1.78-2.22-1.17-.94-1.78 2.22zM12.9 26.25h1.4v-1.5h-1.4zm5.6 2.1h1.4v-1.5h-1.4zm5.6-2.1h1.4v-1.5h-1.4zm32.2 29.3h-5.6V57h5.6zm-5.6 0h-21V57h21zm.74.87l3.85-24.5-1.48-.23L50 56.18zm3-25.35l-3.15.63.29 1.47 3.15-.63zm-3.15.63l-2.1.42.29 1.47 2.1-.42zm.9.74V26.9h-1.5v5.53zm-.75-6.28H46.5v1.5h4.9zm-4.15.75V24.1h-1.5v2.8zm-.75-3.55H42.3v1.5h4.2zM43 24.1V22h-1.5v2.1zm-2.85 15a10 10 0 0 1-2.6-.33l-.39 1.45a11.44 11.44 0 0 0 3 .38zM36.65 22v2.1h1.5V22zm.75 1.35h-4.9v1.5h4.9zm.2 15.42a7.74 7.74 0 0 1-4.47-3.21l-1.24.84a9.24 9.24 0 0 0 5.33 3.82zm-4.47-3.21a9.37 9.37 0 0 1-1-2c-.1-.27-.16-.49-.2-.64v-.17l-.74.15-.74.15v.08l.06.22c.05.19.13.45.24.76a10.86 10.86 0 0 0 1.19 2.34zM31.75 24.1v4.2h1.5v-4.2zm0 4.2V36h1.5v-7.7zm.75-.75h-4.2V29h4.2zm-1.24 4.57l-2.8-.6-.32 1.48 2.8.6zm-2.8-.6l-2.1-.45-.36 1.46 2.1.45zm-.91-3.22v4H29v-4zm21.75 4.55l-.74-.15v.07c0 .07 0 .17-.08.3a8.91 8.91 0 0 1-.4 1.06A8.73 8.73 0 0 1 46 37l1 1.11a10.23 10.23 0 0 0 2.43-3.39 10.42 10.42 0 0 0 .47-1.24c0-.16.08-.28.1-.37V33zm-3.55-5.95v10.7h1.5V26.9zM46 37a7.77 7.77 0 0 1-3.84 1.88l.28 1.47A9.27 9.27 0 0 0 47 38.16zm-3.84 1.88a10.41 10.41 0 0 1-2 .18v1.5a11.9 11.9 0 0 0 2.24-.2zm-.61-14.78v15.56H43V24.1zm-4.9 0v5.6h1.5v-5.6zm0 5.6v9.8h1.5v-9.8zm5.65-8.45h-1.4v1.5h1.4zm-1.4 0h-3.5v1.5h3.5zm-26.25-10.4H42.3v-1.5H14.65zm27.65 0h1.12v-1.5H42.3zm-.66 11.24L43 10.19 41.56 10l-1.4 11.9zM43 48.25a3.1 3.1 0 0 1-3.1 3.1v1.5a4.6 4.6 0 0 0 4.6-4.6zm-3.1 3.1a3.1 3.1 0 0 1-3.1-3.1h-1.5a4.6 4.6 0 0 0 4.6 4.6zm-3.1-3.1a3.1 3.1 0 0 1 3.1-3.1v-1.5a4.6 4.6 0 0 0-4.6 4.6zm3.1-3.1a3.1 3.1 0 0 1 3.1 3.1h1.5a4.6 4.6 0 0 0-4.6-4.6zM16 21.35h13v-1.5H16zm14 0a8.68 8.68 0 0 1 6.76 3.22l1.24-.94a10.18 10.18 0 0 0-8-3.78zm0-1.5h-1v1.5h1zM3.1 55.55H1.7V57h1.4zm26.6 0H10.1V57h19.6zM3 50a7.05 7.05 0 0 0 7.05 7v-1.5a5.55 5.55 0 0 1-5.5-5.5zm1.5-19.69a9 9 0 0 1 9-9v-1.5A10.46 10.46 0 0 0 3 30.31zm0 15.44a1.5 1.5 0 0 0-1.5 1.5h1.5zm2.05-9.8A3.56 3.56 0 0 0 3 39.51h1.5a2.06 2.06 0 0 1 2.06-2.06zM17.15 4.7a2.25 2.25 0 0 1 2.25-2.25V.95a3.75 3.75 0 0 0-3.75 3.75zm-5 4.42a1.73 1.73 0 0 0 1.73 1.73v-1.5a.23.23 0 0 1-.23-.23zm1.5-.42a2.75 2.75 0 0 1 2.75-2.75v-1.5a4.25 4.25 0 0 0-4.25 4.25zm31.5 0a4.25 4.25 0 0 0-4.25-4.25v1.5a2.75 2.75 0 0 1 2.75 2.75zM3 39.51a3.56 3.56 0 0 0 3.54 3.56v-1.5a2.06 2.06 0 0 1-2-2.06zM43.65 9.12a.23.23 0 0 1-.23.23v1.5a1.73 1.73 0 0 0 1.73-1.73zM37.9 2.45a2.25 2.25 0 0 1 2.25 2.25h1.5A3.75 3.75 0 0 0 37.9.95zM3 30.31a2.24 2.24 0 0 0 2.24 2.24V31a.74.74 0 0 1-.74-.74z" fill="#ffed00"/></svg>