<svg id="Слой_1" data-name="Слой 1" xmlns="http://www.w3.org/2000/svg" viewBox="0 0 731.01 171.24">
  <title>лого IT goodcode 2 вариант</title>
  <path d="M171.54,228.69c-1.65,6.14-8,11.12-14.1,11.12H137.52c-6.14,0-9.78-5-8.14-11.12l1.49-5.56c1.65-6.14,8-11.12,14.1-11.12h19.92c6.14,0,9.78,5,8.14,11.12Z" transform="translate(-70.6 -212.02)" fill="#28cae0"/>
  <path d="M162,264.21c-1.65,6.14-8,11.12-14.1,11.12H128c-6.14,0-9.78-5-8.14-11.12l1.49-5.56c1.65-6.14,8-11.12,14.1-11.12h19.92c6.14,0,9.78,5,8.14,11.12Z" transform="translate(-70.6 -212.02)" fill="#ef3430"/>
  <path d="M113.15,264.21c-1.65,6.14-8,11.12-14.1,11.12H79.13c-6.14,0-9.78-5-8.14-11.12l1.49-5.56c1.65-6.14,8-11.12,14.1-11.12H106.5c6.14,0,9.78,5,8.14,11.12Z" transform="translate(-70.6 -212.02)" fill="#28cae0"/>
  <line x1="101.53" y1="121.37" x2="61.28" y2="86.01" fill="none" stroke="#28cae0" stroke-miterlimit="10" stroke-width="9"/>
  <line x1="112.19" y1="84.77" x2="71.94" y2="49.41" fill="none" stroke="#ef3430" stroke-miterlimit="10" stroke-width="9"/>
  <line x1="62.05" y1="86.3" x2="21.81" y2="50.94" fill="none" stroke="#28cae0" stroke-miterlimit="10" stroke-width="9"/>
  <path d="M152.21,300.81c-1.64,6.14-8,11.12-14.1,11.12H118.2c-6.14,0-9.78-5-8.14-11.12l1.49-5.56c1.65-6.14,8-11.12,14.1-11.12h19.92c6.14,0,9.78,5,8.14,11.12Z" transform="translate(-70.6 -212.02)" fill="#28cae0"/>
  <path d="M201.94,300.81c-1.65,6.14-8,11.12-14.1,11.12H167.92c-6.14,0-9.78-5-8.14-11.12l1.49-5.56c1.65-6.14,8-11.12,14.1-11.12h19.92c6.14,0,9.78,5,8.14,11.12Z" transform="translate(-70.6 -212.02)" fill="#ef3430"/>
  <path d="M192.46,336.17c-1.65,6.14-8,11.12-14.1,11.12H158.44c-6.14,0-9.78-5-8.14-11.12l1.49-5.56c1.65-6.14,8-11.12,14.1-11.12h19.92c6.14,0,9.78,5,8.14,11.12Z" transform="translate(-70.6 -212.02)" fill="#28cae0"/>
  <path d="M251,300.81c-1.64,6.14-8,11.12-14.1,11.12H217c-6.14,0-9.78-5-8.14-11.12l1.49-5.56c1.65-6.14,8-11.12,14.1-11.12h19.92c6.14,0,9.78,5,8.14,11.12Z" transform="translate(-70.6 -212.02)" fill="#28cae0"/>
  <path d="M142.74,336.17c-1.65,6.14-8,11.12-14.1,11.12H108.72c-6.14,0-9.78-5-8.14-11.12l1.49-5.56c1.65-6.14,8-11.12,14.1-11.12h19.92c6.14,0,9.78,5,8.14,11.12Z" transform="translate(-70.6 -212.02)" fill="#ef3430"/>
  <path d="M133.1,372.15c-1.64,6.14-8,11.12-14.1,11.12H99.08c-6.14,0-9.78-5-8.14-11.12l1.49-5.56c1.65-6.14,8-11.12,14.1-11.12h19.92c6.14,0,9.79,5,8.14,11.12Z" transform="translate(-70.6 -212.02)" fill="#28cae0"/>
  <g>
    <path d="M329.43,269.67H281.75v44.11h47.68V295.93H304.78v-7.77h34.78v19.69q0,8.35-3,11.37t-11.29,3H285.9q-8.35,0-11.31-3.05t-3-11.34V275.77q0-8.29,3-11.34t11.31-3.05h39.38q8.18,0,11.23,3t3.05,10.74v1.5l-10.13,2v-8.92Z" transform="translate(-70.6 -212.02)" fill="#28cae0"/>
    <path d="M349.4,287.17q0-5.81,2.2-7.93t8.2-2.12h30.62q6,0,8.2,2.12t2.2,7.93v22.31q0,5.81-2.17,7.91t-8.23,2.1H359.8q-6.1,0-8.25-2.08t-2.15-7.93V287.17Zm8,25.93h35.4V283.41h-35.4v29.69Z" transform="translate(-70.6 -212.02)" fill="#ef3430"/>
    <path d="M418.4,287.17q0-5.81,2.2-7.93t8.2-2.12h30.61q6,0,8.2,2.12t2.2,7.93v22.31q0,5.81-2.17,7.91t-8.23,2.1H428.8q-6.11,0-8.25-2.08t-2.15-7.93V287.17Zm8,25.93h35.4V283.41H426.4v29.69Z" transform="translate(-70.6 -212.02)" fill="#ef3430"/>
    <path d="M507.43,277.11a54.26,54.26,0,0,1,10.18.81,20.35,20.35,0,0,1,6.81,2.47,18.88,18.88,0,0,1,6.79,7.45,22.23,22.23,0,0,1,2.44,10.38q0,10.69-6.49,16t-19.73,5.3H483V277.11h24.41Zm-0.88,6.3H491v29.69h15.53q10.35,0,14.72-3.49t4.37-11.5q0-7.81-4.42-11.25T506.55,283.41Z" transform="translate(-70.6 -212.02)" fill="#28cae0"/>
    <path d="M603.55,269.41H563.35v42h40.21V296.89l9.71,2v6.86q0,8-2.8,10.86t-10.7,2.85H567.3q-7.9,0-10.75-2.88t-2.85-10.83V275.23q0-8,2.85-10.83t10.75-2.88h32.47q7.9,0,10.7,2.85t2.8,10.86v5.48l-9.71,1.81V269.41Z" transform="translate(-70.6 -212.02)" fill="#28cae0"/>
    <path d="M622.62,283.17c0-3.87.73-2.52,2.2-3.93s4.2-2.12,8.2-2.12h30.62q6,0,8.2,2.12t2.2,7.93v22.31q0,5.81-2.17,7.91t-8.23,2.1H633q-6.1,0-8.25-2.08c-1.43-1.38-2.15-8-2.15-11.93V283.17Zm8,29.93H666V283.41h-35.4v29.69Z" transform="translate(-70.6 -212.02)" fill="#ef3430"/>
    <path d="M720.33,277.11a54.26,54.26,0,0,1,10.18.81,20.35,20.35,0,0,1,6.81,2.47,18.88,18.88,0,0,1,6.79,7.45,22.22,22.22,0,0,1,2.44,10.38q0,10.69-6.49,16t-19.73,5.3H695.92V277.11h24.41Zm-0.88,6.3H703.92v29.69h15.53q10.35,0,14.72-3.49t4.37-11.5q0-7.81-4.42-11.25T719.45,283.41Z" transform="translate(-70.6 -212.02)" fill="#28cae0"/>
    <path d="M758.54,319.49V277.11h42.68v6.3H766.55V294.3h20.9v6.3h-20.9v12.7h35.06v6.2H758.54Z" transform="translate(-70.6 -212.02)" fill="#28cae0"/>
  </g>
  <rect x="285.32" y="70.72" width="38" height="31" fill="#ef3430"/>
  <rect x="354.5" y="70.72" width="38" height="31" fill="#ef3430"/>
  <rect x="558.73" y="70.78" width="38" height="31" fill="#ef3430"/>
  <line x1="307.84" y1="86.22" x2="367.46" y2="86.22" fill="none" stroke="#ef3430" stroke-miterlimit="10" stroke-width="9"/>
  <line x1="560.03" y1="86.01" x2="619.64" y2="86.01" fill="none" stroke="#ef3430" stroke-miterlimit="10" stroke-width="9"/>
</svg>
